<?xml version="1.0" standalone="no"?>
<!DOCTYPE svg PUBLIC "-//W3C//DTD SVG 20010904//EN"
 "http://www.w3.org/TR/2001/REC-SVG-20010904/DTD/svg10.dtd">
<svg version="1.0" xmlns="http://www.w3.org/2000/svg"
 width="100.000000pt" height="100.000000pt" viewBox="0 0 100.000000 100.000000"
 preserveAspectRatio="xMidYMid meet">
<metadata>
Created by potrace 1.16, written by Peter Selinger 2001-2019
</metadata>
<g transform="translate(0.000000,100.000000) scale(0.100000,-0.100000)"
fill="#000000" stroke="none">
<path d="M287 934 c-4 -4 -7 -81 -7 -171 0 -156 1 -163 20 -163 11 0 20 -3 20
-6 0 -3 -29 -55 -65 -115 -36 -60 -65 -111 -65 -114 0 -3 13 -5 28 -5 25 0 35
12 98 120 l69 120 48 0 47 0 0 -120 c0 -113 1 -120 20 -120 19 0 20 7 20 120
l0 120 48 0 47 0 69 -120 c63 -108 73 -120 98 -120 15 0 28 2 28 5 0 3 -29 54
-65 114 -36 60 -65 112 -65 115 0 3 9 6 20 6 20 0 20 5 18 168 l-3 167 -211 3
c-115 1 -213 -1 -217 -4z m393 -194 l0 -100 -180 0 -180 0 0 100 0 100 180 0
180 0 0 -100z"/>
<path d="M60 220 l0 -100 50 0 c28 0 50 -4 50 -10 0 -5 -9 -10 -20 -10 -13 0
-20 -7 -20 -20 0 -18 7 -20 60 -20 53 0 60 2 60 20 0 13 -7 20 -20 20 -11 0
-20 5 -20 10 0 6 23 10 50 10 l50 0 0 100 0 100 -120 0 -120 0 0 -100z m200 0
l0 -60 -80 0 -80 0 0 60 0 60 80 0 80 0 0 -60z"/>
<path d="M380 220 l0 -100 50 0 c28 0 50 -4 50 -10 0 -5 -9 -10 -20 -10 -13 0
-20 -7 -20 -20 0 -18 7 -20 60 -20 53 0 60 2 60 20 0 13 -7 20 -20 20 -11 0
-20 5 -20 10 0 6 23 10 50 10 l50 0 0 100 0 100 -120 0 -120 0 0 -100z m200 0
l0 -60 -80 0 -80 0 0 60 0 60 80 0 80 0 0 -60z"/>
<path d="M700 220 l0 -100 50 0 c28 0 50 -4 50 -10 0 -5 -9 -10 -20 -10 -13 0
-20 -7 -20 -20 0 -18 7 -20 60 -20 53 0 60 2 60 20 0 13 -7 20 -20 20 -11 0
-20 5 -20 10 0 6 23 10 50 10 l50 0 0 100 0 100 -120 0 -120 0 0 -100z m200 0
l0 -60 -80 0 -80 0 0 60 0 60 80 0 80 0 0 -60z"/>
</g>
</svg>
